<html>
<head>
<meta charset="UTF-8">
<meta name="viewport" content="width=device-width, initial-scale=1.0"/>

<style>
.comment
{
    padding-left: 20px;
    margin-top: 4px;
    margin-right: 4px;
    margin-bottom: 4px;
    border: 2px #000 solid;
}
.submission
{
    border: 4px #00f solid;
    padding-left: 20px;
}
.hidden
{
    display: none;
}
</style>
</head>
<body><div class="submission" id="t3_7dueu2">
    <p class="userinfo">
        <a href="https://www.reddit.com/u/AabidS10">AabidS10</a>
        <span class="score"> | 15 points</span>
        <span class="timestamp"> | Nov 18 2017 17:43:08</span>
    </p>
    <strong>[MOVIE/PACK] Magic Mike(2012) & Magic Mike XXL (2015) 720p X265(1.4 GB)</strong>
    <p><p>Link(www.base64decode.org):</p>
<blockquote>
<p>aHR0cHM6Ly9tZWdhLm56LyNGITNWQlVBTEpKIWpCNFJpXzA0MWN2Qlk5NjFOV09lUlE=</p>
</blockquote>
<p><strong><em>Magic Mike:</em></strong></p>
<p>Media Info</p>
<p><strong>Video</strong></p>
<p>ID : 1</p>
<p>Format : HEVC</p>
<p>Format/Info : High Efficiency Video Coding</p>
<p>Format profile : Main 10@L3.1@Main</p>
<p>Codec ID : V_MPEGH/ISO/HEVC</p>
<p>Duration : 1 h 50 min</p>
<p>Bit rate : 902 kb/s</p>
<p>Width : 1 280 pixels</p>
<p>Height : 528 pixels</p>
<p>Display aspect ratio : 2.40:1</p>
<p>Frame rate mode : Constant</p>
<p>Frame rate : 23.976 (24000/1001) FPS</p>
<p>Color space : YUV</p>
<p>Chroma subsampling : 4:2:0</p>
<p>Bit depth : 10 bits</p>
<p>Bits/(Pixel*Frame) : 0.056</p>
<p>Stream size : 713 MiB (90%)</p>
<p><strong>Audio</strong></p>
<p>ID : 2</p>
<p>Format : AAC</p>
<p>Format/Info : Advanced Audio Codec</p>
<p>Format profile : HE-AAC / LC</p>
<p>Codec ID : A_AAC</p>
<p>Duration : 1 h 50 min</p>
<p>Bit rate : 100.0 kb/s</p>
<p>Channel(s) : 6 channels</p>
<p>Channel positions : Front: L C R, Side: L R, LFE</p>
<p>Sampling rate : 48.0 kHz / 24.0 kHz</p>
<p>Frame rate : 23.438 FPS (1024 SPF)</p>
<p>Compression mode : Lossy</p>
<p>Delay relative to video : 43 ms</p>
<p>Stream size : 79.0 MiB (10%)</p>
<p>Language : English</p>
<p>Default : Yes</p>
<p>Forced : No</p>
<p>**Magix Mike XL:</p>
<p>Video**</p>
<p>ID : 1</p>
<p>Format : HEVC</p>
<p>Format/Info : High Efficiency Video Coding</p>
<p>Format profile : Main 10@L5.1@Main</p>
<p>Codec ID : V_MPEGH/ISO/HEVC</p>
<p>Duration : 1 h 55 min</p>
<p>Bit rate : 765 kb/s</p>
<p>Width : 1 280 pixels</p>
<p>Height : 544 pixels</p>
<p>Display aspect ratio : 2.35:1</p>
<p>Frame rate mode : Constant</p>
<p>Frame rate : 23.976 (24000/1001) FPS</p>
<p>Color space : YUV</p>
<p>Chroma subsampling : 4:2:0</p>
<p>Bit depth : 10 bits</p>
<p>Bits/(Pixel*Frame) : 0.046</p>
<p>Stream size : 630 MiB (86%)</p>
<p><strong>Audio</strong></p>
<p>ID : 2</p>
<p>Format : AAC</p>
<p>Format/Info : Advanced Audio Codec</p>
<p>Format profile : HE-AAC / LC</p>
<p>Codec ID : A_AAC</p>
<p>Duration : 1 h 55 min</p>
<p>Bit rate : 120 kb/s</p>
<p>Channel(s) : 6 channels</p>
<p>Channel positions : Front: L C R, Side: L R, LFE</p>
<p>Sampling rate : 48.0 kHz / 24.0 kHz</p>
<p>Frame rate : 23.438 FPS (1024 SPF)</p>
<p>Compression mode : Lossy</p>
<p>Delay relative to video : 43 ms</p>
<p>Stream size : 99.0 MiB (14%)</p>
<p>Language : English</p>
<p>Default : Yes</p>
<p>Forced : No</p>
<p>These are not quality media. They are suitable for mobile/tablet viewing and/or archiving.</p></p>
    <p class="toolbar">
        <a href="https://www.reddit.com/r/megalinks/comments/7dueu2">permalink</a>
    </p>
</div>

</body>

<script>
function toggle_collapse(comment_div)
{
    var button = comment_div.getElementsByClassName("toggle_hide_button")[0];
    var collapsible = comment_div.getElementsByClassName("collapsible")[0];
    if (collapsible.classList.contains("hidden"))
    {
        collapsible.classList.remove("hidden");
        button.innerText = "[-]";
    }
    else
    {
        collapsible.classList.add("hidden");
        button.innerText = "[+]";
    }
}
</script>
</html>
